<svg viewBox="0 0 242.1 124" height="50">
   <g>
  <title>Layer 1</title>
  <path d="m32,16c0,-1 0.07612,-1.61732 1,-2c1.30656,-0.5412 3,-2 4,-2c2,0 3,-1 4,-1c1,0 2,0 3,0c1,0 2.29289,-0.70711 3,0c0.70711,0.70711 0.29289,1.29289 1,2c0.70711,0.70711 0,2 0,3c0,1 0.70711,2.29289 0,3c-0.70711,0.70711 -2,2 -3,3c-1,1 -1.61732,3.07612 -2,4c-0.54119,1.30656 -2,2 -2,3c0,1 -0.29289,1.29289 -1,2c-0.70711,0.70711 0,2 0,3c0,1 1.29289,0.29289 2,1c0.70711,0.70711 1.18601,0.69255 3,2c1.14727,0.8269 2,1 3,1c2,0 3,0 4,0c1,0 2.29289,0.70711 3,0c0.70711,-0.70711 2.18601,-0.69255 4,-2c1.14727,-0.8269 2,-2 2,-3c0,-1 0.29289,-1.29289 1,-2c0.70711,-0.70711 1,-1 1,-2c0,-1 0,-2 0,-3c0,-1 0,-2 0,-3c0,-1 1,-1 1,-2c0,-1 0.4588,-1.69344 1,-3c0.38268,-0.92388 -0.70711,-2.29289 0,-3c0.70711,-0.70711 1.29289,-0.29289 2,-1c0.70711,-0.70711 0.29289,-0.70711 1,0c0.70711,0.70711 0,2 0,3c0,1 0,2 0,4c0,1 0,2 0,4c0,1 1,2 1,3c0,1 0.4588,1.69344 1,3c0.38268,0.92388 1.4588,1.69344 2,3c0.38268,0.92388 0.29289,1.29289 1,2c0.70711,0.70711 1.61732,0.07612 2,1c0.5412,1.30656 2.07612,0.61732 3,1c1.30656,0.54119 2,1 3,1c1,0 1.09789,-0.82443 3,-2c0.85065,-0.52573 1.186,-0.69255 3,-2c1.14727,-0.8269 1.61732,-2.07612 2,-3c0.5412,-1.30656 2,-1 2,-2c0,-1 0,-2 0,-3c0,-1 0,-3 0,-4c0,-2 0,-3 0,-4c0,-1 0,-2 0,-3c0,-1 0,-2 0,-3c0,-1 -0.29289,-1.29289 -1,-2c-0.70711,-0.70711 -0.29289,-1.29289 -1,-2c-0.70711,-0.70711 -1,-1 -2,-2l-1,0l0,-1l-1,0" id="svg_2" stroke="#000" fill="none"/>
 </g>
</svg>